<mxfile host="app.diagrams.net" modified="2020-12-20T06:02:03.620Z" agent="5.0 (Windows NT 10.0; Win64; x64) AppleWebKit/537.36 (KHTML, like Gecko) Chrome/87.0.4280.88 Safari/537.36" etag="vhmJ6ccmfdYSnYZs8BRI" version="14.1.1" type="github">
  <diagram id="gbhnheyR5VKLEo0fLliC" name="第 1 页">
    <mxGraphModel dx="1368" dy="641" grid="1" gridSize="10" guides="1" tooltips="1" connect="1" arrows="1" fold="1" page="1" pageScale="1" pageWidth="827" pageHeight="1169" math="0" shadow="0">
      <root>
        <mxCell id="0" />
        <mxCell id="1" parent="0" />
        <mxCell id="odurVu-BpZ1vZmtzO7_A-1" value="producer" style="rounded=0;whiteSpace=wrap;html=1;fillColor=#f8cecc;strokeColor=#b85450;" vertex="1" parent="1">
          <mxGeometry x="405" y="300" width="130" height="300" as="geometry" />
        </mxCell>
        <mxCell id="odurVu-BpZ1vZmtzO7_A-12" style="edgeStyle=orthogonalEdgeStyle;rounded=0;orthogonalLoop=1;jettySize=auto;html=1;" edge="1" parent="1" source="odurVu-BpZ1vZmtzO7_A-3">
          <mxGeometry relative="1" as="geometry">
            <mxPoint x="210" y="380" as="targetPoint" />
          </mxGeometry>
        </mxCell>
        <mxCell id="odurVu-BpZ1vZmtzO7_A-20" style="edgeStyle=orthogonalEdgeStyle;rounded=0;orthogonalLoop=1;jettySize=auto;html=1;entryX=0;entryY=0.267;entryDx=0;entryDy=0;entryPerimeter=0;" edge="1" parent="1" source="odurVu-BpZ1vZmtzO7_A-3" target="odurVu-BpZ1vZmtzO7_A-15">
          <mxGeometry relative="1" as="geometry">
            <mxPoint x="680" y="380" as="targetPoint" />
          </mxGeometry>
        </mxCell>
        <mxCell id="odurVu-BpZ1vZmtzO7_A-3" value="Sender" style="rounded=1;whiteSpace=wrap;html=1;" vertex="1" parent="1">
          <mxGeometry x="420" y="360" width="100" height="40" as="geometry" />
        </mxCell>
        <mxCell id="odurVu-BpZ1vZmtzO7_A-4" style="edgeStyle=orthogonalEdgeStyle;rounded=0;orthogonalLoop=1;jettySize=auto;html=1;exitX=0.5;exitY=1;exitDx=0;exitDy=0;" edge="1" parent="1" source="odurVu-BpZ1vZmtzO7_A-3" target="odurVu-BpZ1vZmtzO7_A-3">
          <mxGeometry relative="1" as="geometry" />
        </mxCell>
        <mxCell id="odurVu-BpZ1vZmtzO7_A-29" style="edgeStyle=orthogonalEdgeStyle;rounded=0;orthogonalLoop=1;jettySize=auto;html=1;entryX=1;entryY=0.5;entryDx=0;entryDy=0;entryPerimeter=0;" edge="1" parent="1" source="odurVu-BpZ1vZmtzO7_A-6" target="odurVu-BpZ1vZmtzO7_A-28">
          <mxGeometry relative="1" as="geometry" />
        </mxCell>
        <mxCell id="odurVu-BpZ1vZmtzO7_A-6" value="Confirm&lt;br&gt;Listener" style="rounded=1;whiteSpace=wrap;html=1;" vertex="1" parent="1">
          <mxGeometry x="420" y="510" width="100" height="40" as="geometry" />
        </mxCell>
        <mxCell id="odurVu-BpZ1vZmtzO7_A-8" value="业务DB" style="strokeWidth=2;html=1;shape=mxgraph.flowchart.database;whiteSpace=wrap;fillColor=#d80073;strokeColor=#A50040;fontColor=#ffffff;" vertex="1" parent="1">
          <mxGeometry x="160" y="310" width="50" height="60" as="geometry" />
        </mxCell>
        <mxCell id="odurVu-BpZ1vZmtzO7_A-11" value="消息DB" style="strokeWidth=2;html=1;shape=mxgraph.flowchart.database;whiteSpace=wrap;fillColor=#e1d5e7;strokeColor=#9673a6;" vertex="1" parent="1">
          <mxGeometry x="160" y="390" width="50" height="60" as="geometry" />
        </mxCell>
        <mxCell id="odurVu-BpZ1vZmtzO7_A-13" value="1. 插入业务数据以及消息" style="text;html=1;align=center;verticalAlign=middle;resizable=0;points=[];autosize=1;" vertex="1" parent="1">
          <mxGeometry x="230" y="350" width="150" height="20" as="geometry" />
        </mxCell>
        <mxCell id="odurVu-BpZ1vZmtzO7_A-15" value="MQ Broker" style="rounded=0;whiteSpace=wrap;html=1;fillColor=#dae8fc;strokeColor=#6c8ebf;" vertex="1" parent="1">
          <mxGeometry x="680" y="300" width="130" height="300" as="geometry" />
        </mxCell>
        <mxCell id="odurVu-BpZ1vZmtzO7_A-21" value="2. 发送消息到mq" style="text;html=1;align=center;verticalAlign=middle;resizable=0;points=[];autosize=1;" vertex="1" parent="1">
          <mxGeometry x="545" y="360" width="110" height="20" as="geometry" />
        </mxCell>
        <mxCell id="odurVu-BpZ1vZmtzO7_A-26" style="edgeStyle=orthogonalEdgeStyle;rounded=0;orthogonalLoop=1;jettySize=auto;html=1;exitX=0;exitY=0.75;exitDx=0;exitDy=0;" edge="1" parent="1" source="odurVu-BpZ1vZmtzO7_A-15">
          <mxGeometry relative="1" as="geometry">
            <mxPoint x="520" y="529.5" as="targetPoint" />
            <mxPoint x="600" y="560" as="sourcePoint" />
            <Array as="points">
              <mxPoint x="680" y="530" />
              <mxPoint x="600" y="530" />
            </Array>
          </mxGeometry>
        </mxCell>
        <mxCell id="odurVu-BpZ1vZmtzO7_A-27" value="3. mq返回确定ack" style="text;html=1;align=center;verticalAlign=middle;resizable=0;points=[];autosize=1;" vertex="1" parent="1">
          <mxGeometry x="550" y="510" width="110" height="20" as="geometry" />
        </mxCell>
        <mxCell id="odurVu-BpZ1vZmtzO7_A-28" value="消息DB" style="strokeWidth=2;html=1;shape=mxgraph.flowchart.database;whiteSpace=wrap;fillColor=#e1d5e7;strokeColor=#9673a6;" vertex="1" parent="1">
          <mxGeometry x="160" y="500" width="50" height="60" as="geometry" />
        </mxCell>
        <mxCell id="odurVu-BpZ1vZmtzO7_A-30" value="4. 更新消息记录状态为已发送1" style="text;html=1;align=center;verticalAlign=middle;resizable=0;points=[];autosize=1;" vertex="1" parent="1">
          <mxGeometry x="225" y="510" width="180" height="20" as="geometry" />
        </mxCell>
        <mxCell id="odurVu-BpZ1vZmtzO7_A-32" style="edgeStyle=orthogonalEdgeStyle;rounded=0;orthogonalLoop=1;jettySize=auto;html=1;entryX=0.5;entryY=1;entryDx=0;entryDy=0;entryPerimeter=0;" edge="1" parent="1" source="odurVu-BpZ1vZmtzO7_A-31" target="odurVu-BpZ1vZmtzO7_A-28">
          <mxGeometry relative="1" as="geometry" />
        </mxCell>
        <mxCell id="odurVu-BpZ1vZmtzO7_A-31" value="分布式定时任务" style="rounded=0;whiteSpace=wrap;html=1;" vertex="1" parent="1">
          <mxGeometry x="125" y="700" width="120" height="60" as="geometry" />
        </mxCell>
        <mxCell id="odurVu-BpZ1vZmtzO7_A-33" value="5. getStatus : 0" style="text;html=1;align=center;verticalAlign=middle;resizable=0;points=[];autosize=1;" vertex="1" parent="1">
          <mxGeometry x="110" y="620" width="100" height="20" as="geometry" />
        </mxCell>
        <mxCell id="odurVu-BpZ1vZmtzO7_A-36" value="" style="endArrow=classic;html=1;edgeStyle=orthogonalEdgeStyle;exitX=0.5;exitY=1;exitDx=0;exitDy=0;entryX=1;entryY=0.85;entryDx=0;entryDy=0;entryPerimeter=0;" edge="1" parent="1" source="odurVu-BpZ1vZmtzO7_A-31" target="odurVu-BpZ1vZmtzO7_A-28">
          <mxGeometry width="50" height="50" relative="1" as="geometry">
            <mxPoint x="350" y="790" as="sourcePoint" />
            <mxPoint x="400" y="740" as="targetPoint" />
            <Array as="points">
              <mxPoint x="185" y="770" />
              <mxPoint x="310" y="770" />
              <mxPoint x="310" y="551" />
            </Array>
          </mxGeometry>
        </mxCell>
        <mxCell id="odurVu-BpZ1vZmtzO7_A-38" value="" style="endArrow=classic;html=1;edgeStyle=orthogonalEdgeStyle;exitX=0;exitY=0.5;exitDx=0;exitDy=0;entryX=0.5;entryY=0;entryDx=0;entryDy=0;" edge="1" parent="1" source="odurVu-BpZ1vZmtzO7_A-31" target="odurVu-BpZ1vZmtzO7_A-3">
          <mxGeometry width="50" height="50" relative="1" as="geometry">
            <mxPoint x="40" y="800" as="sourcePoint" />
            <mxPoint x="40" y="640" as="targetPoint" />
            <Array as="points">
              <mxPoint x="100" y="730" />
              <mxPoint x="100" y="260" />
              <mxPoint x="470" y="260" />
            </Array>
          </mxGeometry>
        </mxCell>
        <mxCell id="odurVu-BpZ1vZmtzO7_A-39" value="6. 重试发送消息" style="text;html=1;align=center;verticalAlign=middle;resizable=0;points=[];autosize=1;" vertex="1" parent="1">
          <mxGeometry x="50" y="240" width="100" height="20" as="geometry" />
        </mxCell>
        <mxCell id="odurVu-BpZ1vZmtzO7_A-40" value="7. 重试次数 &amp;gt; 3 status:2 表示需要人工补偿" style="text;html=1;align=center;verticalAlign=middle;resizable=0;points=[];autosize=1;" vertex="1" parent="1">
          <mxGeometry x="225" y="670" width="240" height="20" as="geometry" />
        </mxCell>
      </root>
    </mxGraphModel>
  </diagram>
</mxfile>
